<svg width="478" height="353" viewBox="0 0 478 353" fill="none" xmlns="http://www.w3.org/2000/svg">
<rect width="478" height="353" fill="white"/>
<path d="M82.0455 69C81.858 68.4261 81.6108 67.9119 81.304 67.4574C81.0028 66.9972 80.642 66.6051 80.2216 66.2812C79.8068 65.9574 79.3352 65.7102 78.8068 65.5398C78.2784 65.3693 77.6989 65.2841 77.0682 65.2841C76.0341 65.2841 75.0938 65.5511 74.2472 66.0852C73.4006 66.6193 72.7273 67.4062 72.2273 68.446C71.7273 69.4858 71.4773 70.7614 71.4773 72.2727C71.4773 73.7841 71.7301 75.0597 72.2358 76.0994C72.7415 77.1392 73.4261 77.9261 74.2898 78.4602C75.1534 78.9943 76.125 79.2614 77.2045 79.2614C78.2045 79.2614 79.0852 79.0483 79.8466 78.6222C80.6136 78.1903 81.2102 77.5824 81.6364 76.7983C82.0682 76.0085 82.2841 75.0795 82.2841 74.0114L82.9318 74.1477H77.6818V72.2727H84.3295V74.1477C84.3295 75.5852 84.0227 76.8352 83.4091 77.8977C82.8011 78.9602 81.9602 79.7841 80.8864 80.3693C79.8182 80.9489 78.5909 81.2386 77.2045 81.2386C75.6591 81.2386 74.3011 80.875 73.1307 80.1477C71.9659 79.4205 71.0568 78.3864 70.4034 77.0455C69.7557 75.7045 69.4318 74.1136 69.4318 72.2727C69.4318 70.892 69.6165 69.6506 69.9858 68.5483C70.3608 67.4403 70.8892 66.4972 71.571 65.7188C72.2528 64.9403 73.0597 64.3438 73.9915 63.929C74.9233 63.5142 75.9489 63.3068 77.0682 63.3068C77.9886 63.3068 78.8466 63.446 79.642 63.7244C80.4432 63.9972 81.1562 64.3864 81.7812 64.892C82.4119 65.392 82.9375 65.9915 83.358 66.6903C83.7784 67.3835 84.0682 68.1534 84.2273 69H82.0455ZM88.3928 73.6364C88.3928 71.4886 88.6712 69.5142 89.228 67.7131C89.7905 65.9062 90.5916 64.2443 91.6314 62.7273H93.4041C92.995 63.2898 92.6115 63.983 92.2536 64.8068C91.9013 65.625 91.5916 66.5256 91.3246 67.5085C91.0575 68.4858 90.8473 69.4972 90.6939 70.5426C90.5462 71.5881 90.4723 72.6193 90.4723 73.6364C90.4723 74.9886 90.603 76.3608 90.8643 77.7528C91.1257 79.1449 91.478 80.4375 91.9212 81.6307C92.3643 82.8239 92.8587 83.7955 93.4041 84.5455H91.6314C90.5916 83.0284 89.7905 81.3693 89.228 79.5682C88.6712 77.7614 88.3928 75.7841 88.3928 73.6364ZM97.8722 67.9091L101.009 73.2614L104.145 67.9091H106.463L102.236 74.4545L106.463 81H104.145L101.009 75.9205L97.8722 81H95.554L99.7131 74.4545L95.554 67.9091H97.8722ZM113.629 73.6364C113.629 75.7841 113.347 77.7614 112.785 79.5682C112.228 81.3693 111.43 83.0284 110.39 84.5455H108.617C109.026 83.983 109.407 83.2898 109.759 82.4659C110.117 81.6477 110.43 80.75 110.697 79.7727C110.964 78.7898 111.171 77.7756 111.319 76.7301C111.472 75.679 111.549 74.6477 111.549 73.6364C111.549 72.2841 111.418 70.9119 111.157 69.5199C110.896 68.1278 110.543 66.8352 110.1 65.642C109.657 64.4489 109.163 63.4773 108.617 62.7273H110.39C111.43 64.2443 112.228 65.9062 112.785 67.7131C113.347 69.5142 113.629 71.4886 113.629 73.6364ZM132.278 71.3352V73.2102H124.642V71.3352H132.278ZM142.84 81V63.5455H153.306V65.4205H144.954V71.3182H152.522V73.1932H144.954V81H142.84ZM157.369 73.6364C157.369 71.4886 157.648 69.5142 158.205 67.7131C158.767 65.9062 159.568 64.2443 160.608 62.7273H162.381C161.972 63.2898 161.588 63.983 161.23 64.8068C160.878 65.625 160.568 66.5256 160.301 67.5085C160.034 68.4858 159.824 69.4972 159.67 70.5426C159.523 71.5881 159.449 72.6193 159.449 73.6364C159.449 74.9886 159.58 76.3608 159.841 77.7528C160.102 79.1449 160.455 80.4375 160.898 81.6307C161.341 82.8239 161.835 83.7955 162.381 84.5455H160.608C159.568 83.0284 158.767 81.3693 158.205 79.5682C157.648 77.7614 157.369 75.7841 157.369 73.6364ZM166.849 67.9091L169.985 73.2614L173.121 67.9091H175.44L171.212 74.4545L175.44 81H173.121L169.985 75.9205L166.849 81H164.531L168.69 74.4545L164.531 67.9091H166.849ZM182.605 73.6364C182.605 75.7841 182.324 77.7614 181.761 79.5682C181.205 81.3693 180.406 83.0284 179.366 84.5455H177.594C178.003 83.983 178.384 83.2898 178.736 82.4659C179.094 81.6477 179.406 80.75 179.673 79.7727C179.94 78.7898 180.148 77.7756 180.295 76.7301C180.449 75.679 180.526 74.6477 180.526 73.6364C180.526 72.2841 180.395 70.9119 180.134 69.5199C179.872 68.1278 179.52 66.8352 179.077 65.642C178.634 64.4489 178.139 63.4773 177.594 62.7273H179.366C180.406 64.2443 181.205 65.9062 181.761 67.7131C182.324 69.5142 182.605 71.4886 182.605 73.6364Z" fill="black"/>
<path d="M282.045 179C281.858 178.426 281.611 177.912 281.304 177.457C281.003 176.997 280.642 176.605 280.222 176.281C279.807 175.957 279.335 175.71 278.807 175.54C278.278 175.369 277.699 175.284 277.068 175.284C276.034 175.284 275.094 175.551 274.247 176.085C273.401 176.619 272.727 177.406 272.227 178.446C271.727 179.486 271.477 180.761 271.477 182.273C271.477 183.784 271.73 185.06 272.236 186.099C272.741 187.139 273.426 187.926 274.29 188.46C275.153 188.994 276.125 189.261 277.205 189.261C278.205 189.261 279.085 189.048 279.847 188.622C280.614 188.19 281.21 187.582 281.636 186.798C282.068 186.009 282.284 185.08 282.284 184.011L282.932 184.148H277.682V182.273H284.33V184.148C284.33 185.585 284.023 186.835 283.409 187.898C282.801 188.96 281.96 189.784 280.886 190.369C279.818 190.949 278.591 191.239 277.205 191.239C275.659 191.239 274.301 190.875 273.131 190.148C271.966 189.42 271.057 188.386 270.403 187.045C269.756 185.705 269.432 184.114 269.432 182.273C269.432 180.892 269.616 179.651 269.986 178.548C270.361 177.44 270.889 176.497 271.571 175.719C272.253 174.94 273.06 174.344 273.991 173.929C274.923 173.514 275.949 173.307 277.068 173.307C277.989 173.307 278.847 173.446 279.642 173.724C280.443 173.997 281.156 174.386 281.781 174.892C282.412 175.392 282.938 175.991 283.358 176.69C283.778 177.384 284.068 178.153 284.227 179H282.045ZM288.393 183.636C288.393 181.489 288.671 179.514 289.228 177.713C289.79 175.906 290.592 174.244 291.631 172.727H293.404C292.995 173.29 292.612 173.983 292.254 174.807C291.901 175.625 291.592 176.526 291.325 177.509C291.058 178.486 290.847 179.497 290.694 180.543C290.546 181.588 290.472 182.619 290.472 183.636C290.472 184.989 290.603 186.361 290.864 187.753C291.126 189.145 291.478 190.437 291.921 191.631C292.364 192.824 292.859 193.795 293.404 194.545H291.631C290.592 193.028 289.79 191.369 289.228 189.568C288.671 187.761 288.393 185.784 288.393 183.636ZM297.872 177.909L301.009 183.261L304.145 177.909H306.463L302.236 184.455L306.463 191H304.145L301.009 185.92L297.872 191H295.554L299.713 184.455L295.554 177.909H297.872ZM313.629 183.636C313.629 185.784 313.347 187.761 312.785 189.568C312.228 191.369 311.43 193.028 310.39 194.545H308.617C309.026 193.983 309.407 193.29 309.759 192.466C310.117 191.648 310.43 190.75 310.697 189.773C310.964 188.79 311.171 187.776 311.319 186.73C311.472 185.679 311.549 184.648 311.549 183.636C311.549 182.284 311.418 180.912 311.157 179.52C310.896 178.128 310.543 176.835 310.1 175.642C309.657 174.449 309.163 173.477 308.617 172.727H310.39C311.43 174.244 312.228 175.906 312.785 177.713C313.347 179.514 313.629 181.489 313.629 183.636Z" fill="black"/>
<path d="M381.114 191V173.545H391.58V175.42H383.227V181.318H390.795V183.193H383.227V191H381.114ZM395.643 183.636C395.643 181.489 395.921 179.514 396.478 177.713C397.04 175.906 397.842 174.244 398.881 172.727H400.654C400.245 173.29 399.862 173.983 399.504 174.807C399.151 175.625 398.842 176.526 398.575 177.509C398.308 178.486 398.097 179.497 397.944 180.543C397.796 181.588 397.722 182.619 397.722 183.636C397.722 184.989 397.853 186.361 398.114 187.753C398.376 189.145 398.728 190.437 399.171 191.631C399.614 192.824 400.109 193.795 400.654 194.545H398.881C397.842 193.028 397.04 191.369 396.478 189.568C395.921 187.761 395.643 185.784 395.643 183.636ZM405.122 177.909L408.259 183.261L411.395 177.909H413.713L409.486 184.455L413.713 191H411.395L408.259 185.92L405.122 191H402.804L406.963 184.455L402.804 177.909H405.122ZM420.879 183.636C420.879 185.784 420.597 187.761 420.035 189.568C419.478 191.369 418.68 193.028 417.64 194.545H415.867C416.276 193.983 416.657 193.29 417.009 192.466C417.367 191.648 417.68 190.75 417.947 189.773C418.214 188.79 418.421 187.776 418.569 186.73C418.722 185.679 418.799 184.648 418.799 183.636C418.799 182.284 418.668 180.912 418.407 179.52C418.146 178.128 417.793 176.835 417.35 175.642C416.907 174.449 416.413 173.477 415.867 172.727H417.64C418.68 174.244 419.478 175.906 420.035 177.713C420.597 179.514 420.879 181.489 420.879 183.636Z" fill="black"/>
<path d="M209.852 42.125V50H207.841V32.5455H209.852V38.9545H210.023C210.33 38.2784 210.79 37.7415 211.403 37.3438C212.023 36.9403 212.847 36.7386 213.875 36.7386C214.767 36.7386 215.548 36.9176 216.219 37.2756C216.889 37.6278 217.409 38.1705 217.778 38.9034C218.153 39.6307 218.341 40.5568 218.341 41.6818V50H216.33V41.8182C216.33 40.7784 216.06 39.9744 215.52 39.4062C214.986 38.8324 214.244 38.5455 213.295 38.5455C212.636 38.5455 212.045 38.6847 211.523 38.9631C211.006 39.2415 210.597 39.6477 210.295 40.1818C210 40.7159 209.852 41.3636 209.852 42.125Z" fill="black"/>
<path d="M143.693 321.307C142.864 321.307 142.111 321.151 141.435 320.838C140.759 320.52 140.222 320.062 139.824 319.466C139.426 318.864 139.227 318.136 139.227 317.284C139.227 316.534 139.375 315.926 139.67 315.46C139.966 314.989 140.361 314.619 140.855 314.352C141.349 314.085 141.895 313.886 142.491 313.756C143.094 313.619 143.699 313.511 144.307 313.432C145.102 313.33 145.747 313.253 146.241 313.202C146.741 313.145 147.105 313.051 147.332 312.92C147.565 312.79 147.682 312.562 147.682 312.239V312.17C147.682 311.33 147.452 310.676 146.991 310.21C146.537 309.744 145.847 309.511 144.92 309.511C143.96 309.511 143.207 309.722 142.662 310.142C142.116 310.562 141.733 311.011 141.511 311.489L139.602 310.807C139.943 310.011 140.398 309.392 140.966 308.949C141.54 308.5 142.165 308.187 142.841 308.011C143.523 307.83 144.193 307.739 144.852 307.739C145.273 307.739 145.756 307.79 146.301 307.892C146.852 307.989 147.384 308.19 147.895 308.497C148.412 308.804 148.841 309.267 149.182 309.886C149.523 310.506 149.693 311.335 149.693 312.375V321H147.682V319.227H147.58C147.443 319.511 147.216 319.815 146.898 320.139C146.58 320.463 146.156 320.739 145.628 320.966C145.099 321.193 144.455 321.307 143.693 321.307ZM144 319.5C144.795 319.5 145.466 319.344 146.011 319.031C146.563 318.719 146.977 318.315 147.256 317.821C147.54 317.327 147.682 316.807 147.682 316.261V314.42C147.597 314.523 147.409 314.616 147.119 314.702C146.835 314.781 146.506 314.852 146.131 314.915C145.761 314.972 145.401 315.023 145.048 315.068C144.702 315.108 144.42 315.142 144.205 315.17C143.682 315.239 143.193 315.349 142.739 315.503C142.29 315.651 141.926 315.875 141.648 316.176C141.375 316.472 141.239 316.875 141.239 317.386C141.239 318.085 141.497 318.614 142.014 318.972C142.537 319.324 143.199 319.5 144 319.5Z" fill="black"/>
<path d="M412.341 284.909L415.477 290.261L418.614 284.909H420.932L416.705 291.455L420.932 298H418.614L415.477 292.92L412.341 298H410.023L414.182 291.455L410.023 284.909H412.341Z" fill="black"/>
<path d="M327.114 321V303.545H329.125V309.989H329.295C329.443 309.761 329.648 309.472 329.909 309.119C330.176 308.761 330.557 308.443 331.051 308.165C331.551 307.881 332.227 307.739 333.08 307.739C334.182 307.739 335.153 308.014 335.994 308.565C336.835 309.116 337.491 309.898 337.963 310.909C338.435 311.92 338.67 313.114 338.67 314.489C338.67 315.875 338.435 317.077 337.963 318.094C337.491 319.105 336.838 319.889 336.003 320.446C335.168 320.997 334.205 321.273 333.114 321.273C332.273 321.273 331.599 321.134 331.094 320.855C330.588 320.571 330.199 320.25 329.926 319.892C329.653 319.528 329.443 319.227 329.295 318.989H329.057V321H327.114ZM329.091 314.455C329.091 315.443 329.236 316.315 329.526 317.071C329.815 317.821 330.239 318.409 330.795 318.835C331.352 319.256 332.034 319.466 332.841 319.466C333.682 319.466 334.384 319.244 334.946 318.801C335.514 318.352 335.94 317.75 336.224 316.994C336.514 316.233 336.659 315.386 336.659 314.455C336.659 313.534 336.517 312.705 336.233 311.966C335.955 311.222 335.531 310.634 334.963 310.202C334.401 309.764 333.693 309.545 332.841 309.545C332.023 309.545 331.335 309.753 330.778 310.168C330.222 310.577 329.801 311.151 329.517 311.889C329.233 312.622 329.091 313.477 329.091 314.455Z" fill="black"/>
<path d="M401 293H42.5V34.5" stroke="black"/>
<path d="M145.5 286.5V297" stroke="black"/>
<path d="M330 287.5V299.5" stroke="black"/>
<path d="M100 249.5C170.5 272 127 114.5 231.5 100.5" stroke="black"/>
<path d="M331.5 195C323.5 161.333 292.7 95.3 233.5 100.5" stroke="black"/>
<path d="M147 250.29C217.5 272.79 174 115.29 278.5 101.29" stroke="black"/>
<path d="M378.5 195.79C370.5 162.123 339.7 96.0899 280.5 101.29" stroke="black"/>
<path d="M187 122.5V229" stroke="black"/>
<path d="M188 122.5H235.5" stroke="black"/>
<path d="M129 89.5C139 122 159.3 174.1 160.5 122.5" stroke="black"/>
<path d="M188 169C185.167 159 176.2 135.7 163 122.5" stroke="black"/>
<path d="M210.5 58C203.667 71.8333 196.3 94.5 221.5 74.5" stroke="black"/>
<path d="M219.5 76.5C221.667 74.3333 224.7 80 219.5 120" stroke="black"/>
</svg>
